PathFileType	4	(X/Y/Z)	C:/Users/beibeiliu/ov580/test_trc/User3\sequence.25_training_dense_right.trc
DataRate	CameraRate	NumFrames	NumMarkers	Units	OrigDataRate	OrigDataStartFrame	OrigNumFrames
120	120	18	19	mm	120	30	145
Frame#	Time	ThumbCMC			ThumbMCP			ThumbIP			ThumbTip			IndexMCP			IndexPIP			IndexTip			MiddleMCP			MiddlePIP			MiddleTip			RingMCP			RingPIP			RingTip			PinkyMCP			PinkyPIP			PinkyTip			BackHand1			BackHand2			BackHand3	
		X0	Y0	Z0	X1	Y1	Z1	X2	Y2	Z2	X3	Y3	Z3	X4	Y4	Z4	X5	Y5	Z5	X6	Y6	Z6	X7	Y7	Z7	X8	Y8	Z8	X9	Y9	Z9	X10	Y10	Z10	X11	Y11	Z11	X12	Y12	Z12	X13	Y13	Z13	X14	Y14	Z14	X15	Y15	Z15	X16	Y16	Z16	X17	Y17	Z17	X18	Y18	Z18	
29	0.241667	183.372	-28.001	-10.2389	189.811	-7.57372	-32.9675	196.883	9.62598	-59.3601	193.961	22.3895	-78.9463	155.897	-31.9758	-87.6316	156.514	-22.6775	-107.183	152.889	-11.2707	-129.675	130.168	-23.0669	-83.0294	124.425	5.24107	-93.2455	123.927	41.8769	-89.8514	111.97	-29.7935	-69.0842	104.062	-6.0623	-86.5659	100.184	22.7465	-90.4371	95.7489	-37.0676	-49.2106	79.083	-25.6708	-66.3166	66.7355	-11.1121	-77.5311	129.427	-60.9446	-26.1267	133.827	-67.7808	5.69956	166.655	-57.2519	-17.5739	
30	0.25	190.998	-30.43	-10.4025	198.327	-11.2453	-32.5116	202.807	5.20557	-54.2436	200.817	18.4949	-72.2794	167.399	-32.4166	-83.2893	160.399	-18.5456	-105.756	157.835	-3.16423	-124.234	138.191	-24.75	-79.7715	132.556	5.09699	-91.3123	129.665	38.972	-83.3819	118.482	-32.1061	-70.4033	112.597	-10.6935	-87.2875	104.038	20.8477	-90.038	103.167	-38.413	-50.022	89.5737	-27.1393	-67.1144	76.893	-12.0465	-78.3211	134.579	-62.3186	-23.1854	140.29	-67.5039	4.57553	171.078	-60.6966	-15.5679	
31	0.258333	196.194	-31.8327	-5.32348	203.774	-10.7724	-31.0021	207.265	5.22787	-51.7349	201.748	21.1821	-71.9555	169.923	-33.7032	-77.9031	167.451	-12.3866	-102.6	159.833	12.885	-112.333	144.169	-27.2573	-79.8055	137.944	1.72493	-89.9821	138.856	38.8781	-76.8289	126.937	-33.3684	-69.6478	117.451	-10.7581	-84.8368	116.598	17.4454	-85.8664	107.677	-38.5899	-46.5226	96.8073	-25.0919	-63.7518	90.3362	-2.23188	-75.5349	142.345	-62.428	-22.2267	148.643	-70.8905	8.11905	173.569	-61.6844	-13.082	
32	0.266667	202.409	-32.3511	-0.234273	207.629	-9.25904	-28.1932	207.787	8.6492	-51.6674	192.162	22.8311	-67.6635	173.149	-33.7306	-74.397	170.851	-5.40177	-97.8208	165.741	20.6036	-91.9444	149.297	-31.3568	-74.9946	144.952	1.06267	-89.8163	141.906	31.9143	-67.3841	130.667	-33.88	-65.0142	123.478	-8.47702	-80.717	123.435	22.9647	-67.5546	114.313	-36.0603	-44.2553	100.806	-16.2081	-59.1543	108.118	13.5594	-60.9606	142.665	-63.9274	-17.9084	146.049	-69.0471	9.88653	175.726	-61.7639	-13.555	
33	0.275	201.705	-31.6345	-0.299819	209.048	-8.14334	-22.7715	203.297	11.608	-46.2733	182.03	24.39	-63.6884	174.879	-30.7332	-76.9608	169.01	-3.81642	-92.0921	166.102	20.5127	-71.0189	147.326	-31.7652	-72.1732	144.716	0.678116	-86.2346	150.463	23.8144	-55.9825	130.07	-29.565	-65.0756	124.512	-2.0752	-72.8629	130.355	19.2993	-49.9351	116.173	-31.2958	-45.5783	109.683	-6.9535	-56.0149	121.528	20.5743	-41.7591	145.294	-64.3422	-17.4057	150.294	-68.8852	8.77397	181.957	-60.96	-9.445	
34	0.283333	201.25	-29.8764	-1.93018	206.238	-4.03456	-25.9402	194.57	12.0656	-43.3687	170.157	23.988	-58.4547	171.792	-28.157	-72.48	171.763	5.73678	-82.1285	173.822	15.3704	-53.2076	154.048	-26.6021	-75.6576	148.592	3.95582	-78.471	157.144	10.1543	-38.191	135.85	-27.571	-62.5806	129.507	0.565837	-65.0251	144.977	12.2569	-33.828	120.532	-28.0778	-44.6998	117.593	-0.877696	-48.307	133.812	12.7357	-27.4708	146.579	-62.1692	-14.7822	153.856	-68.5126	12.7673	182.783	-60.3262	-11.6686	
35	0.291667	202.581	-29.0849	1.53803	203.058	-1.7503	-27.3849	190.711	16.3321	-46.2839	162.855	18.4003	-51.275	177.245	-22.2644	-74.7574	170.791	6.85252	-73.6704	180.105	9.23636	-41.8005	154.126	-21.3524	-73.6763	152.004	9.55137	-66.4991	159.484	0.0349125	-29.2068	135.616	-24.4608	-58.7174	137.706	7.54511	-54.6922	149.403	3.05719	-21.6814	123.918	-23.7287	-46.1707	124.682	0.362235	-43.411	140.269	2.77817	-15.927	152.18	-64.0632	-17.1896	156.112	-69.3542	15.0283	182.681	-61.8116	-9.80771	
36	0.3	202.757	-28.8072	-2.20347	203.241	-2.253	-23.4999	185.137	15.4183	-48.6849	158.516	16.7026	-49.3214	174.733	-22.3395	-70.9174	176.011	9.56813	-66.4465	179.101	1.62706	-35.1851	159.054	-18.4916	-69.615	155.753	9.30648	-57.8642	167.814	-8.91711	-22.0099	139.595	-22.0047	-56.3417	141.138	7.49935	-44.3579	154.765	-4.15375	-16.8052	123.965	-23.715	-41.0636	131.014	4.76122	-31.2507	144.547	-2.24938	-10.2224	151.869	-62.7512	-16.3896	156.917	-69.1467	10.3562	184.769	-62.4362	-6.23182	
37	0.308333	202.538	-30.0053	3.12696	206.606	-2.39565	-23.2384	186.047	14.5403	-48.0023	157.744	12.9502	-46.137	176.897	-23.2768	-66.3921	173.934	7.36763	-59.524	184.851	-6.05359	-28.9432	157.446	-19.1703	-65.2611	155.547	7.9472	-49.1244	165.103	-14.9056	-17.446	139.966	-22.1376	-53.6127	144.073	6.07682	-36.7653	157.423	-7.5394	-12.338	124.932	-20.655	-39.3954	134.566	1.90461	-24.4981	148.468	-13.5794	-3.2469	150.303	-66.3888	-14.1497	152.586	-70.9592	12.9857	183.55	-63.0675	-9.47361	
38	0.316667	204.13	-31.709	4.45435	208.24	-5.69635	-22.7882	189.045	10.4311	-47.2716	162.568	11.6214	-45.8428	177.243	-20.74	-65.5961	177.409	6.61872	-51.9472	181.886	-13.1489	-25.2011	155.709	-21.7098	-61.5409	159.769	6.84528	-46.8815	169.671	-16.402	-13.2669	143.023	-19.2214	-51.8123	142.766	4.11919	-35.043	158.441	-11.7499	-8.40678	127.279	-23.4693	-37.3983	132.658	-0.99176	-22.83	146.565	-16.2889	-1.37109	150.432	-65.6295	-12.9737	155.262	-70.2817	14.1697	183.043	-65.763	-6.45834	
39	0.325	207.27	-31.8149	4.74789	207.189	-9.01105	-25.6802	189.82	4.8031	-46.3258	165.797	8.53896	-46.6805	181.889	-26.9665	-61.9334	179.35	5.2817	-52.3446	183.281	-13.1159	-22.4261	160.669	-21.588	-62.6428	159.824	5.76277	-43.2415	166.934	-17.3276	-11.6445	140.937	-19.8238	-50.4685	146.201	2.32699	-31.8428	158.879	-17.2004	-6.7075	131.195	-24.0485	-38.3932	136.202	-2.49994	-19.7187	146	-22.7519	1.62119	147.127	-67.4721	-13.0534	151.366	-70.0718	19.0613	184.186	-66.619	-5.15919	
40	0.333333	205.055	-34.5891	2.39764	208.291	-12.312	-23.1379	194.865	3.41706	-46.9839	167.931	4.75605	-50.9773	181.364	-28.8305	-63.3619	175.489	2.07501	-52.4992	178.96	-16.182	-21.3735	156.232	-25.8515	-61.3079	160.417	2.95331	-48.0232	167.129	-16.195	-11.7116	139.332	-25.4978	-48.407	145.665	0.302353	-32.3459	154.807	-17.274	-5.44629	125.954	-23.6435	-37.4638	134.769	-3.92014	-18.4455	142.864	-23.1595	2.8905	148.097	-68.1324	-13.5234	150.294	-72.1977	18.4816	179.329	-66.1325	-2.48744	
41	0.341667	201.335	-37.1161	2.84323	210.447	-16.2008	-22.9901	195.973	-3.27757	-49.7911	170.854	4.26283	-59.3427	179.994	-30.4661	-65.1237	175.591	0.962535	-54.459	180.156	-11.4425	-24.3647	156.599	-24.4567	-63.5074	156.634	1.95241	-46.4548	163.262	-19.6792	-12.9338	138.114	-22.8426	-50.285	144.894	0.0779013	-35.1914	154.552	-21.2149	-6.12247	123.57	-25.8724	-37.2498	137.909	-5.38438	-19.869	141.436	-22.3495	1.56736	144.223	-70.2352	-11.4512	147.307	-69.5853	16.0177	180.499	-67.4268	-2.47815	
42	0.35	197.971	-38.6431	0.114863	207.714	-20.6681	-24.1424	202.47	-6.39136	-54.3818	183.037	4.26338	-71.2518	171.528	-28.0545	-67.2365	171.388	0.248222	-58.5162	176.939	-9.72799	-27.3182	150.53	-23.6386	-64.0072	153.318	2.16698	-49.4726	162.458	-19.6282	-15.298	138.731	-24.242	-51.1151	142.879	0.723133	-33.8562	155.037	-15.6574	-9.10417	120.572	-23.784	-38.1638	131.243	-2.61809	-22.3734	141.371	-22.3993	1.16475	141.758	-69.2826	-12.7992	143.804	-69.8011	14.8822	176.561	-67.0472	-7.45206	
43	0.358333	199.464	-37.2645	-0.521603	205.196	-21.7725	-24.8625	208.584	-8.71664	-51.7031	200.929	2.64781	-71.4656	169.258	-31.7865	-66.9594	171.825	3.506	-58.7305	176.377	-6.58177	-29.7133	150.463	-27.2946	-63.0227	155.448	3.32154	-49.9082	162.353	-18.2327	-18.3434	134.708	-25.3409	-52.9167	141.323	1.44701	-34.3915	148.609	-16.3141	-9.25441	118.603	-21.9431	-40.5261	131.582	-3.06233	-24.77	138.942	-21.1508	-1.61008	141.184	-68.1898	-13.675	143.87	-70.4379	13.9912	172.463	-66.0145	-4.1724	
44	0.366667	194.51	-36.8142	-3.64897	205.698	-23.2419	-24.152	214.406	-11.3071	-49.9825	215.478	0.394631	-71.953	168.637	-29.7149	-73.8238	169.368	1.25949	-70.4744	170.285	-2.35187	-35.7452	149.636	-24.3197	-66.7339	149.662	3.56343	-51.8541	159.438	-18.9205	-21.0053	132.511	-20.8133	-54.8132	139.226	3.02146	-36.7594	147.658	-15.2506	-12.3402	121.287	-23.4436	-40.924	129.049	-2.11013	-24.6817	140.323	-19.7693	-5.98522	138.663	-68.4235	-18.4544	143.374	-67.84	16.7545	174.294	-65.0245	-5.57103	
45	0.375	195.228	-36.1377	-3.80618	208.387	-22.3569	-27.3864	220.328	-10.8402	-51.6749	223.825	1.64608	-72.7212	165.688	-38.173	-74.0274	165.65	-5.35289	-85.4648	168.623	6.16053	-52.4063	148.541	-26.1873	-70.4559	149.113	4.26493	-61.2766	156.157	-15.4794	-25.5499	132.499	-25.4681	-55.5116	135.976	3.02982	-40.1275	147.795	-13.7646	-14.6973	115.872	-21.7346	-43.4286	126.029	-2.22262	-31.4677	135.109	-17.2977	-3.84961	141.738	-66.5802	-17.9283	141.877	-70.6103	15.8889	176.556	-64.1655	-10.9871	
46	0.383333	197.513	-33.8781	-4.85375	206.569	-19.6353	-26.2416	218.821	-4.52793	-52.9319	220.453	6.87772	-66.9382	166.257	-41.1584	-76.672	156.039	-18.5699	-98.4945	154.788	12.0523	-80.4254	143.174	-24.6707	-70.3154	143.996	6.82469	-60.8527	153.165	-11.2515	-27.385	129.149	-23.6987	-56.1261	132.121	4.78777	-40.4153	145.651	-12.9229	-15.9379	110.748	-20.7806	-43.8703	121.267	0.205813	-26.4813	135.129	-14.8157	-8.40901	135.015	-64.9173	-21.2598	140.958	-70.649	9.67406	171.6	-62.9906	-11.5315	
